<mxfile modified="2024-03-16T16:07:48.574Z" host="Electron" agent="Mozilla/5.0 (Windows NT 10.0; Win64; x64) AppleWebKit/537.36 (KHTML, like Gecko) draw.io/21.7.5 Chrome/114.0.5735.289 Electron/25.8.1 Safari/537.36" etag="nZBPXx-QlV5wsUxYKDiX" version="21.7.5" type="device">
  <diagram id="Ht1M8jgEwFfnCIfOTk4-" name="Page-1">
    <mxGraphModel dx="1674" dy="870" grid="1" gridSize="10" guides="1" tooltips="1" connect="1" arrows="1" fold="1" page="1" pageScale="1" pageWidth="1169" pageHeight="827" math="0" shadow="0">
      <root>
        <mxCell id="0" />
        <mxCell id="1" parent="0" />
        <mxCell id="L4jWgLFUTArOf29gHsyD-1" value="" style="shape=image;aspect=fixed;image=data:image/png,iVBORw0KGgoAAAANSUhEUgAAA1wAAAKhCAYAAABEnq+3AAAbE0lEQVR42u3bsU9VdxjH4f5pJh1JZ6JLE9KhEzGszOBmCAsmyMAECRuoi/EyOCimgyYyGNvkmmAT5XIvBCnjqSTF2NYg0fNefu/vPMOzqjnxXs4nvN8fTk9PGwAAANr3g4cAAAAguAAAAAQXAAAAggsAAEBwAQAACC4AAAAEFwAAgOACAAAQXAAAAAguAAAAwQUAACC4AAAAEFwAAACCCwAAQHABAAAguAAAAAQXAACA4AIAAEBwAQAACC4AAADBBQAAgOACAAAQXAAAAIILAAAAwQUAACC4AAAABBcAAACCCwAAQHABAAAILgAAAAQXAACA4AIAABBcAAAACC4AAADBBQAAILgAAAAQXAAAAIILAABAcAEAACC4AAAABBf819LcQbO6eNjs9U88DwAABBe0HVw///iumbmx3zzaOvJMAAAQXNB2cJ07C68n28eeDQAAggvaDq5zd26NnBkCACC4ICK4ztl3AQAguCAouOy7AAAQXBAYXMILAADBBcHBZd8FAIDgguDgEl4AAAguCA4uZ4YAAAguCAwu4QUAgOCC4OByZggAgOCC4OASXgAACC4IDi5nhgAACC4EV2BwCS8AAAQXgis4uJwZAgAguBBcwgsAAMEFuYPLmSEAAIILwSW8AAAQXJA3uJwZAgAguBBcwgsAAMEFuYPLmSEAAIILwSW8AAAQXJA3uJwZAgAguBBcwgsAAMEFuYPLmSEAAIILwSW8AAAQXJA3uJwZAgAguBBcwgsAAMGF4MrPmSEAgOACwSW8AAAQXAguZ4YAAAguEFzCCwBAcIHgcmYIAIDgQnAJLwAABBcILmeGAACCy0NAcAkvAAAEF4LLmSEAAIILBJfwAgBAcCG4srg9e+DMEABAcIHgsu8CAEBwIbgSnxneW3dmCAAguEBw2XcBAAguEFz2XQAACC4EF/ZdAACCCwSXfRcAgOACwWXfBQCA4EJwYd8FACC4QHDZdwEACC4QXPZdAAAILgQX9l0AAIILBJd9FwCA4PIQEFz2XfZdAACCC8GFfRcAgOACwWXfBQCA4EJwYd8FACC4EFzYdwEACC4QXPZdAAAILgQX9l0AAIILwYV9FwCA4ALBZd8FAIDgQnBh3wUAILgQXNh3AQAILhBc2HcBAAguBBf2XQAAggvBhX0XAIDgAsGFfRcAgOBCcGHfBQAguBBc2HcBAAguEFzYdwEACC4EF/ZdAACCC8ElRuy7AAAEFwgu7LsAAAQXgossZ4YbK84MAQDBBYIL+y4AAMGF4CKruZv2XQCA4ALBhX0XAIDgQnBh3wUAILgQXGDfBQAILhBc2HcBAAguBBf2XQAAggvBBfZdAIDgAsGFfRcAgOBCcGHfBQAguBBcggH7LgBAcIHgwr4LAEBwIbgQXvZdAIDgQnAJLuy7AADBBYIL+y4AAMGF4AL7LgBAcIHgwr4LABBcILiw7wIAEFwILrDvAgAEFwguSjsz9JkEAAQXgguC+EwCAIILwQWCCwAQXCC4EFwAgOACwQWCCwAQXAguEFwAgOACwYXgAgAEFwguEFwAgOBCcIHgAgAEFwguBBcAILhAcIHgAgAEF4ILsgTXnVujZq9/4jMO0LK1tVdNr/fGs0BwgeCiy8F19mfN3NhvHm0d+ZwDtGBn520zPf24uXZts9nc/MMzQXCB4KLrwXVOeAF8u35/+Cm0zgkuBBcILgTX/zgzBLi8weC4uXt3t5mYePCv2BJcCC4QXAiuC/8O4QXw9Z3Wl0JLcCG4QHAhuL4aXM4MAb6+07qI4EJwgeBCcF2K8AL48k5LcCG4QHAhuL47uJwZAnZauxeeDwouBBcILgTXdweX8ALstAQXggsEF4IrOLicGQJ2WoILwQWCC8EVGFzCC7DTElwILhBcCK7g4HJmCHR5pyW4EFwguBBcYwku4QV0cacluBBcILgQXGMNLmeGQJd2WoILwQWCC8E19uASXkBXdlqCC8EFggvBdWXB5cwQqH2nJbgQXCC4EFxXHlzCC6h1pyW4EFwguBBcxQSXM0Ogtp2W4EJwgeBCcBUVXMILqGmnJbgQXCC4EFxFBpczQ6CGnZbgQnCB4EJwFR1cwgvIvNMSXAguEFwIrhTB5cwQyLjTElwILhBcCK40wSW8gGw7LcGF4ALBheBKF1zODIEsOy3BheACwYXgShtcwgsofacluBBcILgQXOmD6/zM8N66M0Ow09pMQ3AhuEBwIbjSse8COy3BBYILwQWCK9jt2QNnhmCnJbhAcCG4QHDZdwG17rQEF4ILBBeCq+rgsu8COy3BBYILwQWCy74LqHCnJbgQXCC4EFydCS77LrDTElwguBBcILjsu8BOq5KdluBCcIHgQnB1Nrjsu8BOS3CB4EJwgeCy7wI7LcEFggvB5UUfwWXfBdhpCS4EFwguBJfgsu8COy3BBYILwQWCy74LatxpTU1tdza0BBeCCwQXgktw2XeBnZbgQnCB4ALBZd8FWXZaIktwIbhAcCG4BJd9F9hpCS4EFwguEFz2XWCnJbhAcCG4QHDZd4GdFoILwQWCC8EluOy7wE5LcCG4PAQEFwgu+y6w0xJcILgQXCC47LvATgvBheACwYXgElz2XWCnJbhAcCG4QHDZd4GdluACwYXgAsGFfRd2WgguBBcILgSX4LLvAjstwQWCC8EFgsu+C+y0BBcILgQXCC7su7DTQnAhuEBwIbgEl30X2GkJLhBcCC4QXPZdYKcluEBwIbhAcGHfhZ0WggvBBYILwSW47Luw00JwgeBCcIHgsu8COy3BBYILwQWCC/su7LQQXAguEFwILsFl34WdFoILBBeCCwQX9l3YaQkuEFwILhBc2Hdhp4XgQnCB4EJwCS77Luy0EFwguBBcILiw78JOS3CB4EJweeFDcGHfhZ0WggvBBYILwSW47Luw00JwgeBCcIHg4vvODDdWnBnaaSG4QHAhuEBwYd+FnZbgAsEFggvBRVZzN+277LQQXCC4EFwguLDvwk5LcIHgAsGF4MK+CzstBBeCCwQXgktwYd9lp4XgAsGF4ALBhX2XnRaCCwQXCC4EF/Zd2GkhuBBcILgQXIIL+y47LQQXCC4EFwgu7LvstBBcILhAcCG4sO/CTgvBheACwYXgElzYd9lpIbhAcCG4QHBh31XbTmty8qG4QHAhuEBwIbgEF/ZddloILhBcCC4QXNh3FbzTWlh4LiYQXAguEFwILsGFfZedFoILBBeCCwQX9l12WgguEFwILi9bCC7ozr7LTgvBheCCMet9fLmYub7vZQvBBRXvu+y0EFwILrhCZy8Wq4sjL1oILqhw32WnheBCcEFB4bU078wQwQU17LvstBBcCC4o1NPtY2eGCC5Iuu+y00JwIbjAvgsEF/ZddloILhBcYN+F4ILy9112WgguBJeHgH0XCC7su+y0EFwguMC+C8EFZe+77LQQXCC4sO8CwYV9l50WggsEF9h3Ibig/H2XnRaCCwQX9l0guOCfM8N76+2cGZ6dD9ppIbhAcIF9F4ILPv9N1/ywlf/Tm5u/e9FHcIHgAvsuBBcILgQXCC6w70JwgeACwYXgAvsuBJfgQnAJLgQXCC6w70JwgeBCcIHgAvsuBBcILhBcCC6w70JwCS4El+BCcIHgAvsuBBcILgQXCC4o1Itn9l0ILgSX4EJwgeAC+y4EFwguBBcILsh8ZrixYt8luAQXgktwIbhAcIF9F4ILBBeCCwQX2HchuEBwgeBCcAH2XYJLcCG4BBeCCwQX2HchuEBwIbhAcIF9F4ILBBcILgQXYN8luAQXgktwIbhAcIF9F4ILBBeCCwQX2HchuEBwgeBCcAH2XYJLcCG4BBeCCwQX2HchuEBwIbhAcIF9l32X4ALBBYILwQXYdwkuwYXgElwILhBcYN+F4ALBheACwQXYdwkuEFwguBBcgH0XggvBJbgQXCC4wL4LwQWCC8EFgguw7xJcILhAcCG4APsuBBeCS3AhuEBwgX0XggsEF4LLewKCC7DvElwguEBwIbgA+y4EF4JLcCG4QHAB9l2CCwQXgktwIbgA+y7BBYILBBeCC7DvQnAhuAQXggsEF2DfJbhAcIHgQnAB9l2Cy7NEcIHgQnAB9l0ILgSX4EJwgeAC7LsEFwguEFwILsC+S3B5lgguEFwILsC+C8GF4BJcCC4QXIB9l+ACwQWCC8EF2HcJLsGF4ALBheACsO8SXAguwYXgAsEF2HcJLhBcILgQXIB9l+ASXAguEFwILgD7LsGF4BJcCC4QXIB9l+ACwQWCC8EF2HcJLsGF4ALBheACsO8SXAguwYXgAsEF2HcJLhBcILgQXIB9l+ASXAguEFwILg8BsO8SXAguwYXgAsEF2HcJLhBcILgQXAD17LsEF4JLcCG4QHAB9l2CCwQXggsEF2DfJbhAcIHgQnAB2HcJLgSX4EJwgeAC7LsEFwguBJefrwgugHT7LsGF4BJcCC4QXIB9l+ACwYXgAsEFkGvfJbgQXIILwQWCC7DvElwguBBcILgAcu27BBeCS3AhuEBwAfZdggsEF4ILBBdArn2X4EJwCS4EFwguoBOGg9Ox77sEF4JLcCG4QHAB9l2CCwQXggsEF0B7Xu9+CD8zFFwILsGF4ALBBdh3BYWX4EJwCS4EFwguwL4raN8luBBcggvBBYILIGjfJbgQXIILwQWCCyBo3yW4EFyCC8EFggsgaN8luBBcggvBBYILIGjfJbgQXIILwQWCCyBo3yW4EFyCC8EFggsgaN8luBBcggvBBYILIGjfJbgQXIILwQWCCyBo3yW4EFyCC8EFggsgaN8luBBcggvBBYILIGjfJbgQXIILwQWCCyBo3yW4EFyCC8EFggsgaN8luBBcggvBBYILoHBe9BFcILgQXAAILgSX4EJwgeACEFwguEBwIbgAEFwILhBcCC4ABBeCS3AhuEBwAQguEFwguBBcAAguBBcILgQXAIILwSW4EFwguAAEFwguEFwILgAEF4ILBBeCC4Bo99cPm5nr+174EVzQsrm535rB4NjPGgQXQNft9U+apfkDL/0ILmjB9PTjZmfnrZ8vCC4AhBeCC9oyOfmw6fXe+HmC4ALgYr2tI2eGCC64pImJB83y8kvngwguAIQXggvstEBwATgzRHAJLuy0QHABCC8QXNhpgeACwJkhggvstEBwAQgvBJfgwk4LBBeAM0Nnhggu7LRAcAEgvBBccPmdltBCcAHgzBDBJbiw0wLBBSC8QHBRtoWF50ILwQWAM0MEl+DCTgsEFwDCC8GFnRYILgCcGSK4sNMCwQWA8EJwCS7stEBwAeDMEMGFnRYILgCEF4ILOy0QXAA4M0RwCS7stEBwAST8LZPwQnBhpwWCC4AAZy+6GytHzgwRXNhpgeACICK4zszc2G8ebQkvBBd2WiC4AGg9uD4Pr9e7H5wZIriw0wLBBUDbwfXp5ffWyL4LwYWdFgguACKC69zZvms4+MuZIYILOy0QXAC0HVz2XQgu7LRAcAEQGFz2XQgu7LRAcAEQHFz2XQgu7LRAcAEQHFz2XQgu7LRAcAEQHFz2XQgu7LRAcAEQGFz2XQgu7LRAcAEQHFz2XQgu7LRAcAEQHFyl7rtWF0eiRnBR0E5rd/e972AQXACCy74LwYWdFgguAAoMrlL3XU+3j50ZCi6uYKflOxcEF4Dginyhtu9CcNlpAYILQHDFsu9CcNlpAYILQHDZdyG4sNMCwQVAvuCy70Jw2WkBggtAcNl3Ibiw0wLBBUDu4LLvQnDZaQGCC0Bw2XchuOy07LRAcAGQN7jsuwSX4LLTAgQXgOCy70Jw2WkBgguA3MFl3yW4BJedFiC4AASXfReCy04LEFwA5A0u+y7BJbjstADBBSC47LsQXHZagOACEFx1vKzbdwkuwWWnBQguAMFl34XgstMCBBeA4Hpn32XfJbjstADBBYDgsu8SXILLTgsQXACCy77Lvktw2WkBggtAcNV4ZmjfJbjstAAEF4Dgsu8SXILLTgsQXACCy77Lvktw2WkBggsAwWXfJbg6stPq94e+2wDBBSC47LvsuwSXnRYguAAEl32XfZfgKnintbb2yncZILgABJd9l32X4LLTAgQXgODis31XKeHVhX2X4LLTAgQXgOCy77LvElx2WoDgAkBwtR1ez3fKOd968ay+fZfgstMCBBeA4LLvsu8SXHZagOACQHB1ad+1sTISXBUFl50WILgABJczQ/suwWWnBQguAASXfZfgstMCEFwAgsu+q8P7rq4Gl50WILgABBf2XYLLTgsQXAAILvuurPuurgSXnRYguAAEF/ZdgstOCxBcAAgu+65a9l01B5edFiC4AAQX9l2Cy04LEFwACC77rhr3XTUFl50WILgAEFz2XUXtu2oILjstQHABILjsu4rcd2UPLjstQHABILjsu4rdd2UNLjstQHABILjsu4rfd2ULLjstQHABILjsu9Lsu7IEl50WILgAEFz2Xen2XRmCa3n5pZ0WILgAEFz2Xfn2XSUHl50WILgAEFz2Xan3XSUG19RUz04LEFwACC77rvz7rpKCy04LEFwACC77rqr2XaUEl50WILgAEFxUt++66uCy0wIEFwCCi2r3XVcVXHZagOACQHBR/b5r3MFlpwUILgAEF53Zd40zuOy0AMHlIQAILjq17xpHcNlpAQguAMFFJ/ddkcFlpwUguAAEF53ed0UEl50WgOACEFzYd30Mr7aDy04LQHABCC7suz4aDk6b17vt/Ft2dv600wIQXACCC/suAAQXgODCvgsAwQWA4KKufRcAggtAcGHfBYDgAkBwYd8FgOACEFwUFV5Ptu27AAQXAIIL+y4ABBeA4CKr1cVD4QUguAAQXNh3ASC4AAQX9l0ACC4AwQX2XQCCCwDBhX0XAIILQHBh3wWA4AIQXGDfBSC4ABBc2HcBILgABBf2XQAILgDBBfZdAIILAMGFfRcAggtAcGHfZd8FILgABBfYdwEILgAEF2l/2zU/9JkEEFwAggsEF4DgAkBwIbgAEFwAggsEF4DgAhBcILgABBcAggvBBYDgAhBcILgABBeA4ALBBSC4ABBcCC4ABBeA4ALBBSC4AAQXCC4AwQWA4EJwASC4AAQXCC4AwQUguEBwAQguAAQXggsAwQUguEBwAQguAMEFggtAcAEguBBcAAguAMEFggtAcAEILhBcAIILAMGF4AJAcAEILhBcAIILQHCB4AIQXAAILgQXAIILQHCB4AIQXACCCwQXgOACQHAhuAAQXACCCwQXgOACEFwguAAEFwCCC8EFgOACEFwguAAEF4DgAsEFILgAEFwILgAEF4DgAsEFILgABBcILgDBBYDgQnABILgABBcILgDBBSC4QHABCC4ABBeCCwDBBSC4QHABCC4AwQWCC0BwASC4EFwACC4AwQWCC0BwAQguEFwAggsAwYXgAkBwAQguEFwAggtAcIHgAhBcAAguBBcAggtAcIHgAhBcAIILBBeA4AJAcCG4ABBcAIILBBeA4AIQXF70EVwAggsAwYXgAkBwAQguEFwAggsAwYXgAhBcAAguBBcAggtAcIHgAhBcAAguBBeA4AJAcCG4ABBcAIILBBeA4AJAcCG4AAQXAIILwQWA4AIQXCC4AAQXAIILwQUguAAQXAguAAQXgOACwQUguAAQXAguAMHlIQAILgQXAIILQHCB4AIQXAAILgQXAIILQHAhuAAQXACCCwQXgOACQHAhuAAQXACCC8EFgOACEFwguAAEFwCCC8EFgOACEFwILgAEF4DgAsEFILgAEFwILgAEF4DgQnABILgABBcILgDBBYDgQnABILgABBeCy2cSQHABCC4QXACCCwDBheACQHABCC4El88kgOACEFwguAAEFwCCC8EFgOACEFwguAAEF4DgAsEFILgAEFwILgAEF4DgAsEFILgAajRzfd/LPoILQHABEGVjZdT8+tN7L/0ILgDBBUCEvf5JszR/4MUfwQUguACIDK/ZX5wZIrgABBcAYXpbR/ZdCC4AwQWAfReCCwDBBWDfBYILQHABYN+F4AIQXADYdyG4ABBcAPZdILgABBcA9l0ILgDBBYB9F4ILAMEFYN8FggtAcAFg34XgAhBcANh3IbgAEFwAwsu+C8EFILgAsO9CcAEILgDsuxBcAAguAOy7EFwAggsA+y4EF4DgAsC+C8EFgOACwL4LwQUguACw70JwAQguAOy7EFwACC4A7LsQXACCCwD7LgQXgOACwJmhfZfgAkBwARAfXnM3B0JFcAEguACw70JwAQguABLvu4SX4AJAcAFg34XgAhBcANh3IbgABBcA2HcJLgAEFwD2XQguAMEFgH0XggtAcAGAfZfgAkBwAWDfheACEFwA2HchuAAEFwDYdwkuAAQXAPZdCC4AwQWAfZczQ8EFILgAwL5LcAEguACw70JwAQguALDvElwAggsA7LsEFwCCCwD7LgQXgOACAPsuwQUguADAvktwASC4ALDvQnABCC4AsO8SXACCCwDsuwQXAIILAOFl3yW4AAQXANh3CS4AwQUA9l2CCwDBBQD2XYILQHABgH2X4AIQXABg3yW4ABBcAGDfJbgABBcA2HcJLgDBBQD2XYILAMEFAPZdggtAcAGAfZfgAhBcAODMsPJ9l+ACEFwAYN8luAAEFwDYdwkuAAQXANh3CS4AwQUA9l2CC0BwAYB9l+ACQHABgH2X4AIQXABg3yW4AAQXAJBx3yW4AAQXANh3CS4AwQUA5Np3CS4AwQUA9l2CC0BwAQC59l2CC0BwAYB9l+ACEFwAQK59l+ACEFwAYN8luAAEFwCQa98luAAEFwDYdwkuAMEFAOTadwkuAMEFAPZdQfsuwQUguACAoH2X4AIQXABA0L5LcAEILgAgaN8luAAEFwAQtO8SXACCCwAI2ncJLgDBBQAE7bsEF4DgAgCC9l2CC0BwAQDf6P764YXhJbgABBcAELTvElwAggsAaCm8bs8OBBeA4AIAxrHvElwAggsACNp3bdwdeRYAggsAAEBwAQAAILgAAAAEFwAAgOACAABAcAEAAAguAAAAwQUAAIDgAgAAEFwAAACCCwAAAMEFAAAguAAAAAQXAAAAggsAAEBwAQAACC4AAAAEFwAAgOACAAAQXAAAAAguAAAAwQUAACC4AAAAEFwAAACCCwAAQHABAAAguAAAAAQXAACA4AIAAEBwAQAACC4AAADBBQAAgOACAAAQXAAAAIILAAAAwQUAACC4AAAABBcAAACCCwAAQHABAAB0wt9uRCAUOUaqQgAAAABJRU5ErkJggg==;" parent="1" vertex="1">
          <mxGeometry x="240" y="360" width="100" height="78.25" as="geometry" />
        </mxCell>
        <mxCell id="L4jWgLFUTArOf29gHsyD-5" value="" style="sketch=0;outlineConnect=0;fontColor=#232F3E;gradientColor=none;fillColor=#232F3D;strokeColor=none;dashed=0;verticalLabelPosition=bottom;verticalAlign=top;align=center;html=1;fontSize=12;fontStyle=0;aspect=fixed;pointerEvents=1;shape=mxgraph.aws4.users;" parent="1" vertex="1">
          <mxGeometry x="730" y="360.25" width="78" height="78" as="geometry" />
        </mxCell>
        <mxCell id="L4jWgLFUTArOf29gHsyD-10" value="AWS Cloud" style="points=[[0,0],[0.25,0],[0.5,0],[0.75,0],[1,0],[1,0.25],[1,0.5],[1,0.75],[1,1],[0.75,1],[0.5,1],[0.25,1],[0,1],[0,0.75],[0,0.5],[0,0.25]];outlineConnect=0;gradientColor=none;html=1;whiteSpace=wrap;fontSize=12;fontStyle=0;container=1;pointerEvents=0;collapsible=0;recursiveResize=0;shape=mxgraph.aws4.group;grIcon=mxgraph.aws4.group_aws_cloud_alt;strokeColor=#232F3E;fillColor=none;verticalAlign=top;align=left;spacingLeft=30;fontColor=#232F3E;dashed=0;" parent="1" vertex="1">
          <mxGeometry x="210" y="240" width="650" height="320" as="geometry" />
        </mxCell>
        <mxCell id="L4jWgLFUTArOf29gHsyD-11" value="" style="edgeStyle=orthogonalEdgeStyle;html=1;endArrow=block;elbow=vertical;startArrow=none;endFill=1;strokeColor=#545B64;rounded=0;" parent="L4jWgLFUTArOf29gHsyD-10" edge="1">
          <mxGeometry width="100" relative="1" as="geometry">
            <mxPoint x="130" y="160" as="sourcePoint" />
            <mxPoint x="280" y="159.29999999999995" as="targetPoint" />
          </mxGeometry>
        </mxCell>
        <mxCell id="L4jWgLFUTArOf29gHsyD-13" value="Terraform IaC" style="text;strokeColor=none;align=center;fillColor=none;html=1;verticalAlign=middle;whiteSpace=wrap;rounded=0;" parent="L4jWgLFUTArOf29gHsyD-10" vertex="1">
          <mxGeometry x="40" y="200" width="90" height="30" as="geometry" />
        </mxCell>
        <mxCell id="L4jWgLFUTArOf29gHsyD-14" value="Users" style="text;strokeColor=none;align=center;fillColor=none;html=1;verticalAlign=middle;whiteSpace=wrap;rounded=0;" parent="L4jWgLFUTArOf29gHsyD-10" vertex="1">
          <mxGeometry x="510" y="200" width="90" height="30" as="geometry" />
        </mxCell>
        <mxCell id="L4jWgLFUTArOf29gHsyD-15" value="&lt;b&gt;&lt;font style=&quot;font-size: 18px;&quot;&gt;ECS Elastic Container Service&lt;/font&gt;&lt;/b&gt;" style="text;strokeColor=none;align=center;fillColor=none;html=1;verticalAlign=middle;whiteSpace=wrap;rounded=0;" parent="L4jWgLFUTArOf29gHsyD-10" vertex="1">
          <mxGeometry x="160" y="20" width="300" height="30" as="geometry" />
        </mxCell>
        <mxCell id="Fy9U20J4TLaD4hiAO3la-1" value="Terraform commands:&lt;br&gt;plan&lt;br&gt;apply&lt;br&gt;destroy" style="text;strokeColor=none;align=center;fillColor=none;html=1;verticalAlign=middle;whiteSpace=wrap;rounded=0;" parent="L4jWgLFUTArOf29gHsyD-10" vertex="1">
          <mxGeometry x="140" y="180" width="120" height="30" as="geometry" />
        </mxCell>
        <mxCell id="Fy9U20J4TLaD4hiAO3la-2" value="WebSite - EndPoint" style="text;strokeColor=none;align=center;fillColor=none;html=1;verticalAlign=middle;whiteSpace=wrap;rounded=0;" parent="L4jWgLFUTArOf29gHsyD-10" vertex="1">
          <mxGeometry x="390" y="160" width="115" height="30" as="geometry" />
        </mxCell>
        <mxCell id="tS6LmgNya1oCi7FoPHJ--3" value="" style="outlineConnect=0;dashed=0;verticalLabelPosition=bottom;verticalAlign=top;align=center;html=1;shape=mxgraph.aws3.ecs;fillColor=#F58534;gradientColor=none;" vertex="1" parent="L4jWgLFUTArOf29gHsyD-10">
          <mxGeometry x="289" y="132.5" width="72" height="67.5" as="geometry" />
        </mxCell>
        <mxCell id="L4jWgLFUTArOf29gHsyD-12" value="" style="edgeStyle=orthogonalEdgeStyle;html=1;endArrow=none;elbow=vertical;startArrow=block;startFill=1;strokeColor=#545B64;rounded=0;" parent="1" target="L4jWgLFUTArOf29gHsyD-5" edge="1">
          <mxGeometry width="100" relative="1" as="geometry">
            <mxPoint x="568" y="399.25" as="sourcePoint" />
            <mxPoint x="710" y="400" as="targetPoint" />
          </mxGeometry>
        </mxCell>
        <mxCell id="tS6LmgNya1oCi7FoPHJ--4" value="Elastic Container Service" style="text;strokeColor=none;align=center;fillColor=none;html=1;verticalAlign=middle;whiteSpace=wrap;rounded=0;" vertex="1" parent="1">
          <mxGeometry x="460" y="455" width="170" height="30" as="geometry" />
        </mxCell>
      </root>
    </mxGraphModel>
  </diagram>
</mxfile>
